<?xml version="1.0" standalone="yes"?><svg version="1.1" xmlns="http://www.w3.org/2000/svg" xmlns:xlink="http://www.w3.org/1999/xlink" xmlns:ev="http://www.w3.org/2001/xml-events" width="185" height="185" shape-rendering="crispEdges"><rect width="5" height="5" x="0" y="0" fill="#000000"/><rect width="5" height="5" x="5" y="0" fill="#000000"/><rect width="5" height="5" x="10" y="0" fill="#000000"/><rect width="5" height="5" x="15" y="0" fill="#000000"/><rect width="5" height="5" x="20" y="0" fill="#000000"/><rect width="5" height="5" x="25" y="0" fill="#000000"/><rect width="5" height="5" x="30" y="0" fill="#000000"/><rect width="5" height="5" x="40" y="0" fill="#000000"/><rect width="5" height="5" x="55" y="0" fill="#000000"/><rect width="5" height="5" x="60" y="0" fill="#000000"/><rect width="5" height="5" x="100" y="0" fill="#000000"/><rect width="5" height="5" x="110" y="0" fill="#000000"/><rect width="5" height="5" x="120" y="0" fill="#000000"/><rect width="5" height="5" x="125" y="0" fill="#000000"/><rect width="5" height="5" x="130" y="0" fill="#000000"/><rect width="5" height="5" x="140" y="0" fill="#000000"/><rect width="5" height="5" x="150" y="0" fill="#000000"/><rect width="5" height="5" x="155" y="0" fill="#000000"/><rect width="5" height="5" x="160" y="0" fill="#000000"/><rect width="5" height="5" x="165" y="0" fill="#000000"/><rect width="5" height="5" x="170" y="0" fill="#000000"/><rect width="5" height="5" x="175" y="0" fill="#000000"/><rect width="5" height="5" x="180" y="0" fill="#000000"/><rect width="5" height="5" x="0" y="5" fill="#000000"/><rect width="5" height="5" x="30" y="5" fill="#000000"/><rect width="5" height="5" x="60" y="5" fill="#000000"/><rect width="5" height="5" x="65" y="5" fill="#000000"/><rect width="5" height="5" x="75" y="5" fill="#000000"/><rect width="5" height="5" x="95" y="5" fill="#000000"/><rect width="5" height="5" x="100" y="5" fill="#000000"/><rect width="5" height="5" x="105" y="5" fill="#000000"/><rect width="5" height="5" x="120" y="5" fill="#000000"/><rect width="5" height="5" x="140" y="5" fill="#000000"/><rect width="5" height="5" x="150" y="5" fill="#000000"/><rect width="5" height="5" x="180" y="5" fill="#000000"/><rect width="5" height="5" x="0" y="10" fill="#000000"/><rect width="5" height="5" x="10" y="10" fill="#000000"/><rect width="5" height="5" x="15" y="10" fill="#000000"/><rect width="5" height="5" x="20" y="10" fill="#000000"/><rect width="5" height="5" x="30" y="10" fill="#000000"/><rect width="5" height="5" x="40" y="10" fill="#000000"/><rect width="5" height="5" x="50" y="10" fill="#000000"/><rect width="5" height="5" x="75" y="10" fill="#000000"/><rect width="5" height="5" x="80" y="10" fill="#000000"/><rect width="5" height="5" x="85" y="10" fill="#000000"/><rect width="5" height="5" x="100" y="10" fill="#000000"/><rect width="5" height="5" x="110" y="10" fill="#000000"/><rect width="5" height="5" x="130" y="10" fill="#000000"/><rect width="5" height="5" x="135" y="10" fill="#000000"/><rect width="5" height="5" x="140" y="10" fill="#000000"/><rect width="5" height="5" x="150" y="10" fill="#000000"/><rect width="5" height="5" x="160" y="10" fill="#000000"/><rect width="5" height="5" x="165" y="10" fill="#000000"/><rect width="5" height="5" x="170" y="10" fill="#000000"/><rect width="5" height="5" x="180" y="10" fill="#000000"/><rect width="5" height="5" x="0" y="15" fill="#000000"/><rect width="5" height="5" x="10" y="15" fill="#000000"/><rect width="5" height="5" x="15" y="15" fill="#000000"/><rect width="5" height="5" x="20" y="15" fill="#000000"/><rect width="5" height="5" x="30" y="15" fill="#000000"/><rect width="5" height="5" x="50" y="15" fill="#000000"/><rect width="5" height="5" x="55" y="15" fill="#000000"/><rect width="5" height="5" x="75" y="15" fill="#000000"/><rect width="5" height="5" x="85" y="15" fill="#000000"/><rect width="5" height="5" x="100" y="15" fill="#000000"/><rect width="5" height="5" x="105" y="15" fill="#000000"/><rect width="5" height="5" x="115" y="15" fill="#000000"/><rect width="5" height="5" x="120" y="15" fill="#000000"/><rect width="5" height="5" x="125" y="15" fill="#000000"/><rect width="5" height="5" x="140" y="15" fill="#000000"/><rect width="5" height="5" x="150" y="15" fill="#000000"/><rect width="5" height="5" x="160" y="15" fill="#000000"/><rect width="5" height="5" x="165" y="15" fill="#000000"/><rect width="5" height="5" x="170" y="15" fill="#000000"/><rect width="5" height="5" x="180" y="15" fill="#000000"/><rect width="5" height="5" x="0" y="20" fill="#000000"/><rect width="5" height="5" x="10" y="20" fill="#000000"/><rect width="5" height="5" x="15" y="20" fill="#000000"/><rect width="5" height="5" x="20" y="20" fill="#000000"/><rect width="5" height="5" x="30" y="20" fill="#000000"/><rect width="5" height="5" x="40" y="20" fill="#000000"/><rect width="5" height="5" x="50" y="20" fill="#000000"/><rect width="5" height="5" x="55" y="20" fill="#000000"/><rect width="5" height="5" x="60" y="20" fill="#000000"/><rect width="5" height="5" x="65" y="20" fill="#000000"/><rect width="5" height="5" x="85" y="20" fill="#000000"/><rect width="5" height="5" x="125" y="20" fill="#000000"/><rect width="5" height="5" x="150" y="20" fill="#000000"/><rect width="5" height="5" x="160" y="20" fill="#000000"/><rect width="5" height="5" x="165" y="20" fill="#000000"/><rect width="5" height="5" x="170" y="20" fill="#000000"/><rect width="5" height="5" x="180" y="20" fill="#000000"/><rect width="5" height="5" x="0" y="25" fill="#000000"/><rect width="5" height="5" x="30" y="25" fill="#000000"/><rect width="5" height="5" x="45" y="25" fill="#000000"/><rect width="5" height="5" x="50" y="25" fill="#000000"/><rect width="5" height="5" x="60" y="25" fill="#000000"/><rect width="5" height="5" x="65" y="25" fill="#000000"/><rect width="5" height="5" x="75" y="25" fill="#000000"/><rect width="5" height="5" x="85" y="25" fill="#000000"/><rect width="5" height="5" x="90" y="25" fill="#000000"/><rect width="5" height="5" x="100" y="25" fill="#000000"/><rect width="5" height="5" x="105" y="25" fill="#000000"/><rect width="5" height="5" x="115" y="25" fill="#000000"/><rect width="5" height="5" x="130" y="25" fill="#000000"/><rect width="5" height="5" x="140" y="25" fill="#000000"/><rect width="5" height="5" x="150" y="25" fill="#000000"/><rect width="5" height="5" x="180" y="25" fill="#000000"/><rect width="5" height="5" x="0" y="30" fill="#000000"/><rect width="5" height="5" x="5" y="30" fill="#000000"/><rect width="5" height="5" x="10" y="30" fill="#000000"/><rect width="5" height="5" x="15" y="30" fill="#000000"/><rect width="5" height="5" x="20" y="30" fill="#000000"/><rect width="5" height="5" x="25" y="30" fill="#000000"/><rect width="5" height="5" x="30" y="30" fill="#000000"/><rect width="5" height="5" x="40" y="30" fill="#000000"/><rect width="5" height="5" x="50" y="30" fill="#000000"/><rect width="5" height="5" x="60" y="30" fill="#000000"/><rect width="5" height="5" x="70" y="30" fill="#000000"/><rect width="5" height="5" x="80" y="30" fill="#000000"/><rect width="5" height="5" x="90" y="30" fill="#000000"/><rect width="5" height="5" x="100" y="30" fill="#000000"/><rect width="5" height="5" x="110" y="30" fill="#000000"/><rect width="5" height="5" x="120" y="30" fill="#000000"/><rect width="5" height="5" x="130" y="30" fill="#000000"/><rect width="5" height="5" x="140" y="30" fill="#000000"/><rect width="5" height="5" x="150" y="30" fill="#000000"/><rect width="5" height="5" x="155" y="30" fill="#000000"/><rect width="5" height="5" x="160" y="30" fill="#000000"/><rect width="5" height="5" x="165" y="30" fill="#000000"/><rect width="5" height="5" x="170" y="30" fill="#000000"/><rect width="5" height="5" x="175" y="30" fill="#000000"/><rect width="5" height="5" x="180" y="30" fill="#000000"/><rect width="5" height="5" x="40" y="35" fill="#000000"/><rect width="5" height="5" x="45" y="35" fill="#000000"/><rect width="5" height="5" x="50" y="35" fill="#000000"/><rect width="5" height="5" x="60" y="35" fill="#000000"/><rect width="5" height="5" x="65" y="35" fill="#000000"/><rect width="5" height="5" x="70" y="35" fill="#000000"/><rect width="5" height="5" x="85" y="35" fill="#000000"/><rect width="5" height="5" x="100" y="35" fill="#000000"/><rect width="5" height="5" x="105" y="35" fill="#000000"/><rect width="5" height="5" x="110" y="35" fill="#000000"/><rect width="5" height="5" x="120" y="35" fill="#000000"/><rect width="5" height="5" x="135" y="35" fill="#000000"/><rect width="5" height="5" x="140" y="35" fill="#000000"/><rect width="5" height="5" x="25" y="40" fill="#000000"/><rect width="5" height="5" x="30" y="40" fill="#000000"/><rect width="5" height="5" x="50" y="40" fill="#000000"/><rect width="5" height="5" x="60" y="40" fill="#000000"/><rect width="5" height="5" x="65" y="40" fill="#000000"/><rect width="5" height="5" x="70" y="40" fill="#000000"/><rect width="5" height="5" x="80" y="40" fill="#000000"/><rect width="5" height="5" x="85" y="40" fill="#000000"/><rect width="5" height="5" x="95" y="40" fill="#000000"/><rect width="5" height="5" x="100" y="40" fill="#000000"/><rect width="5" height="5" x="110" y="40" fill="#000000"/><rect width="5" height="5" x="125" y="40" fill="#000000"/><rect width="5" height="5" x="130" y="40" fill="#000000"/><rect width="5" height="5" x="150" y="40" fill="#000000"/><rect width="5" height="5" x="160" y="40" fill="#000000"/><rect width="5" height="5" x="170" y="40" fill="#000000"/><rect width="5" height="5" x="180" y="40" fill="#000000"/><rect width="5" height="5" x="0" y="45" fill="#000000"/><rect width="5" height="5" x="10" y="45" fill="#000000"/><rect width="5" height="5" x="15" y="45" fill="#000000"/><rect width="5" height="5" x="20" y="45" fill="#000000"/><rect width="5" height="5" x="25" y="45" fill="#000000"/><rect width="5" height="5" x="35" y="45" fill="#000000"/><rect width="5" height="5" x="45" y="45" fill="#000000"/><rect width="5" height="5" x="50" y="45" fill="#000000"/><rect width="5" height="5" x="55" y="45" fill="#000000"/><rect width="5" height="5" x="65" y="45" fill="#000000"/><rect width="5" height="5" x="70" y="45" fill="#000000"/><rect width="5" height="5" x="75" y="45" fill="#000000"/><rect width="5" height="5" x="80" y="45" fill="#000000"/><rect width="5" height="5" x="95" y="45" fill="#000000"/><rect width="5" height="5" x="105" y="45" fill="#000000"/><rect width="5" height="5" x="110" y="45" fill="#000000"/><rect width="5" height="5" x="115" y="45" fill="#000000"/><rect width="5" height="5" x="125" y="45" fill="#000000"/><rect width="5" height="5" x="135" y="45" fill="#000000"/><rect width="5" height="5" x="160" y="45" fill="#000000"/><rect width="5" height="5" x="25" y="50" fill="#000000"/><rect width="5" height="5" x="30" y="50" fill="#000000"/><rect width="5" height="5" x="35" y="50" fill="#000000"/><rect width="5" height="5" x="40" y="50" fill="#000000"/><rect width="5" height="5" x="45" y="50" fill="#000000"/><rect width="5" height="5" x="55" y="50" fill="#000000"/><rect width="5" height="5" x="60" y="50" fill="#000000"/><rect width="5" height="5" x="65" y="50" fill="#000000"/><rect width="5" height="5" x="75" y="50" fill="#000000"/><rect width="5" height="5" x="80" y="50" fill="#000000"/><rect width="5" height="5" x="85" y="50" fill="#000000"/><rect width="5" height="5" x="90" y="50" fill="#000000"/><rect width="5" height="5" x="100" y="50" fill="#000000"/><rect width="5" height="5" x="120" y="50" fill="#000000"/><rect width="5" height="5" x="125" y="50" fill="#000000"/><rect width="5" height="5" x="130" y="50" fill="#000000"/><rect width="5" height="5" x="135" y="50" fill="#000000"/><rect width="5" height="5" x="140" y="50" fill="#000000"/><rect width="5" height="5" x="150" y="50" fill="#000000"/><rect width="5" height="5" x="155" y="50" fill="#000000"/><rect width="5" height="5" x="160" y="50" fill="#000000"/><rect width="5" height="5" x="180" y="50" fill="#000000"/><rect width="5" height="5" x="0" y="55" fill="#000000"/><rect width="5" height="5" x="5" y="55" fill="#000000"/><rect width="5" height="5" x="10" y="55" fill="#000000"/><rect width="5" height="5" x="15" y="55" fill="#000000"/><rect width="5" height="5" x="20" y="55" fill="#000000"/><rect width="5" height="5" x="25" y="55" fill="#000000"/><rect width="5" height="5" x="35" y="55" fill="#000000"/><rect width="5" height="5" x="40" y="55" fill="#000000"/><rect width="5" height="5" x="50" y="55" fill="#000000"/><rect width="5" height="5" x="55" y="55" fill="#000000"/><rect width="5" height="5" x="70" y="55" fill="#000000"/><rect width="5" height="5" x="85" y="55" fill="#000000"/><rect width="5" height="5" x="90" y="55" fill="#000000"/><rect width="5" height="5" x="95" y="55" fill="#000000"/><rect width="5" height="5" x="100" y="55" fill="#000000"/><rect width="5" height="5" x="115" y="55" fill="#000000"/><rect width="5" height="5" x="120" y="55" fill="#000000"/><rect width="5" height="5" x="130" y="55" fill="#000000"/><rect width="5" height="5" x="150" y="55" fill="#000000"/><rect width="5" height="5" x="165" y="55" fill="#000000"/><rect width="5" height="5" x="175" y="55" fill="#000000"/><rect width="5" height="5" x="180" y="55" fill="#000000"/><rect width="5" height="5" x="5" y="60" fill="#000000"/><rect width="5" height="5" x="20" y="60" fill="#000000"/><rect width="5" height="5" x="25" y="60" fill="#000000"/><rect width="5" height="5" x="30" y="60" fill="#000000"/><rect width="5" height="5" x="35" y="60" fill="#000000"/><rect width="5" height="5" x="40" y="60" fill="#000000"/><rect width="5" height="5" x="45" y="60" fill="#000000"/><rect width="5" height="5" x="50" y="60" fill="#000000"/><rect width="5" height="5" x="65" y="60" fill="#000000"/><rect width="5" height="5" x="70" y="60" fill="#000000"/><rect width="5" height="5" x="75" y="60" fill="#000000"/><rect width="5" height="5" x="80" y="60" fill="#000000"/><rect width="5" height="5" x="100" y="60" fill="#000000"/><rect width="5" height="5" x="110" y="60" fill="#000000"/><rect width="5" height="5" x="135" y="60" fill="#000000"/><rect width="5" height="5" x="140" y="60" fill="#000000"/><rect width="5" height="5" x="150" y="60" fill="#000000"/><rect width="5" height="5" x="155" y="60" fill="#000000"/><rect width="5" height="5" x="0" y="65" fill="#000000"/><rect width="5" height="5" x="5" y="65" fill="#000000"/><rect width="5" height="5" x="15" y="65" fill="#000000"/><rect width="5" height="5" x="20" y="65" fill="#000000"/><rect width="5" height="5" x="25" y="65" fill="#000000"/><rect width="5" height="5" x="65" y="65" fill="#000000"/><rect width="5" height="5" x="75" y="65" fill="#000000"/><rect width="5" height="5" x="90" y="65" fill="#000000"/><rect width="5" height="5" x="100" y="65" fill="#000000"/><rect width="5" height="5" x="110" y="65" fill="#000000"/><rect width="5" height="5" x="125" y="65" fill="#000000"/><rect width="5" height="5" x="130" y="65" fill="#000000"/><rect width="5" height="5" x="135" y="65" fill="#000000"/><rect width="5" height="5" x="140" y="65" fill="#000000"/><rect width="5" height="5" x="145" y="65" fill="#000000"/><rect width="5" height="5" x="155" y="65" fill="#000000"/><rect width="5" height="5" x="170" y="65" fill="#000000"/><rect width="5" height="5" x="175" y="65" fill="#000000"/><rect width="5" height="5" x="10" y="70" fill="#000000"/><rect width="5" height="5" x="20" y="70" fill="#000000"/><rect width="5" height="5" x="30" y="70" fill="#000000"/><rect width="5" height="5" x="40" y="70" fill="#000000"/><rect width="5" height="5" x="45" y="70" fill="#000000"/><rect width="5" height="5" x="50" y="70" fill="#000000"/><rect width="5" height="5" x="85" y="70" fill="#000000"/><rect width="5" height="5" x="90" y="70" fill="#000000"/><rect width="5" height="5" x="95" y="70" fill="#000000"/><rect width="5" height="5" x="105" y="70" fill="#000000"/><rect width="5" height="5" x="110" y="70" fill="#000000"/><rect width="5" height="5" x="115" y="70" fill="#000000"/><rect width="5" height="5" x="120" y="70" fill="#000000"/><rect width="5" height="5" x="125" y="70" fill="#000000"/><rect width="5" height="5" x="130" y="70" fill="#000000"/><rect width="5" height="5" x="135" y="70" fill="#000000"/><rect width="5" height="5" x="140" y="70" fill="#000000"/><rect width="5" height="5" x="145" y="70" fill="#000000"/><rect width="5" height="5" x="155" y="70" fill="#000000"/><rect width="5" height="5" x="165" y="70" fill="#000000"/><rect width="5" height="5" x="175" y="70" fill="#000000"/><rect width="5" height="5" x="180" y="70" fill="#000000"/><rect width="5" height="5" x="0" y="75" fill="#000000"/><rect width="5" height="5" x="10" y="75" fill="#000000"/><rect width="5" height="5" x="20" y="75" fill="#000000"/><rect width="5" height="5" x="35" y="75" fill="#000000"/><rect width="5" height="5" x="50" y="75" fill="#000000"/><rect width="5" height="5" x="60" y="75" fill="#000000"/><rect width="5" height="5" x="65" y="75" fill="#000000"/><rect width="5" height="5" x="70" y="75" fill="#000000"/><rect width="5" height="5" x="75" y="75" fill="#000000"/><rect width="5" height="5" x="85" y="75" fill="#000000"/><rect width="5" height="5" x="90" y="75" fill="#000000"/><rect width="5" height="5" x="95" y="75" fill="#000000"/><rect width="5" height="5" x="110" y="75" fill="#000000"/><rect width="5" height="5" x="130" y="75" fill="#000000"/><rect width="5" height="5" x="135" y="75" fill="#000000"/><rect width="5" height="5" x="145" y="75" fill="#000000"/><rect width="5" height="5" x="155" y="75" fill="#000000"/><rect width="5" height="5" x="160" y="75" fill="#000000"/><rect width="5" height="5" x="165" y="75" fill="#000000"/><rect width="5" height="5" x="170" y="75" fill="#000000"/><rect width="5" height="5" x="175" y="75" fill="#000000"/><rect width="5" height="5" x="10" y="80" fill="#000000"/><rect width="5" height="5" x="15" y="80" fill="#000000"/><rect width="5" height="5" x="20" y="80" fill="#000000"/><rect width="5" height="5" x="25" y="80" fill="#000000"/><rect width="5" height="5" x="30" y="80" fill="#000000"/><rect width="5" height="5" x="35" y="80" fill="#000000"/><rect width="5" height="5" x="40" y="80" fill="#000000"/><rect width="5" height="5" x="50" y="80" fill="#000000"/><rect width="5" height="5" x="55" y="80" fill="#000000"/><rect width="5" height="5" x="65" y="80" fill="#000000"/><rect width="5" height="5" x="80" y="80" fill="#000000"/><rect width="5" height="5" x="85" y="80" fill="#000000"/><rect width="5" height="5" x="90" y="80" fill="#000000"/><rect width="5" height="5" x="110" y="80" fill="#000000"/><rect width="5" height="5" x="125" y="80" fill="#000000"/><rect width="5" height="5" x="130" y="80" fill="#000000"/><rect width="5" height="5" x="145" y="80" fill="#000000"/><rect width="5" height="5" x="150" y="80" fill="#000000"/><rect width="5" height="5" x="160" y="80" fill="#000000"/><rect width="5" height="5" x="170" y="80" fill="#000000"/><rect width="5" height="5" x="180" y="80" fill="#000000"/><rect width="5" height="5" x="10" y="85" fill="#000000"/><rect width="5" height="5" x="15" y="85" fill="#000000"/><rect width="5" height="5" x="45" y="85" fill="#000000"/><rect width="5" height="5" x="55" y="85" fill="#000000"/><rect width="5" height="5" x="60" y="85" fill="#000000"/><rect width="5" height="5" x="65" y="85" fill="#000000"/><rect width="5" height="5" x="95" y="85" fill="#000000"/><rect width="5" height="5" x="105" y="85" fill="#000000"/><rect width="5" height="5" x="115" y="85" fill="#000000"/><rect width="5" height="5" x="125" y="85" fill="#000000"/><rect width="5" height="5" x="135" y="85" fill="#000000"/><rect width="5" height="5" x="140" y="85" fill="#000000"/><rect width="5" height="5" x="155" y="85" fill="#000000"/><rect width="5" height="5" x="165" y="85" fill="#000000"/><rect width="5" height="5" x="5" y="90" fill="#000000"/><rect width="5" height="5" x="30" y="90" fill="#000000"/><rect width="5" height="5" x="35" y="90" fill="#000000"/><rect width="5" height="5" x="40" y="90" fill="#000000"/><rect width="5" height="5" x="45" y="90" fill="#000000"/><rect width="5" height="5" x="50" y="90" fill="#000000"/><rect width="5" height="5" x="65" y="90" fill="#000000"/><rect width="5" height="5" x="70" y="90" fill="#000000"/><rect width="5" height="5" x="75" y="90" fill="#000000"/><rect width="5" height="5" x="80" y="90" fill="#000000"/><rect width="5" height="5" x="90" y="90" fill="#000000"/><rect width="5" height="5" x="100" y="90" fill="#000000"/><rect width="5" height="5" x="120" y="90" fill="#000000"/><rect width="5" height="5" x="135" y="90" fill="#000000"/><rect width="5" height="5" x="155" y="90" fill="#000000"/><rect width="5" height="5" x="165" y="90" fill="#000000"/><rect width="5" height="5" x="170" y="90" fill="#000000"/><rect width="5" height="5" x="180" y="90" fill="#000000"/><rect width="5" height="5" x="10" y="95" fill="#000000"/><rect width="5" height="5" x="15" y="95" fill="#000000"/><rect width="5" height="5" x="20" y="95" fill="#000000"/><rect width="5" height="5" x="25" y="95" fill="#000000"/><rect width="5" height="5" x="40" y="95" fill="#000000"/><rect width="5" height="5" x="50" y="95" fill="#000000"/><rect width="5" height="5" x="80" y="95" fill="#000000"/><rect width="5" height="5" x="95" y="95" fill="#000000"/><rect width="5" height="5" x="105" y="95" fill="#000000"/><rect width="5" height="5" x="115" y="95" fill="#000000"/><rect width="5" height="5" x="135" y="95" fill="#000000"/><rect width="5" height="5" x="165" y="95" fill="#000000"/><rect width="5" height="5" x="5" y="100" fill="#000000"/><rect width="5" height="5" x="10" y="100" fill="#000000"/><rect width="5" height="5" x="15" y="100" fill="#000000"/><rect width="5" height="5" x="20" y="100" fill="#000000"/><rect width="5" height="5" x="30" y="100" fill="#000000"/><rect width="5" height="5" x="35" y="100" fill="#000000"/><rect width="5" height="5" x="45" y="100" fill="#000000"/><rect width="5" height="5" x="50" y="100" fill="#000000"/><rect width="5" height="5" x="60" y="100" fill="#000000"/><rect width="5" height="5" x="65" y="100" fill="#000000"/><rect width="5" height="5" x="75" y="100" fill="#000000"/><rect width="5" height="5" x="80" y="100" fill="#000000"/><rect width="5" height="5" x="85" y="100" fill="#000000"/><rect width="5" height="5" x="90" y="100" fill="#000000"/><rect width="5" height="5" x="95" y="100" fill="#000000"/><rect width="5" height="5" x="100" y="100" fill="#000000"/><rect width="5" height="5" x="105" y="100" fill="#000000"/><rect width="5" height="5" x="115" y="100" fill="#000000"/><rect width="5" height="5" x="120" y="100" fill="#000000"/><rect width="5" height="5" x="125" y="100" fill="#000000"/><rect width="5" height="5" x="130" y="100" fill="#000000"/><rect width="5" height="5" x="135" y="100" fill="#000000"/><rect width="5" height="5" x="145" y="100" fill="#000000"/><rect width="5" height="5" x="150" y="100" fill="#000000"/><rect width="5" height="5" x="155" y="100" fill="#000000"/><rect width="5" height="5" x="160" y="100" fill="#000000"/><rect width="5" height="5" x="165" y="100" fill="#000000"/><rect width="5" height="5" x="170" y="100" fill="#000000"/><rect width="5" height="5" x="15" y="105" fill="#000000"/><rect width="5" height="5" x="25" y="105" fill="#000000"/><rect width="5" height="5" x="35" y="105" fill="#000000"/><rect width="5" height="5" x="50" y="105" fill="#000000"/><rect width="5" height="5" x="60" y="105" fill="#000000"/><rect width="5" height="5" x="75" y="105" fill="#000000"/><rect width="5" height="5" x="80" y="105" fill="#000000"/><rect width="5" height="5" x="85" y="105" fill="#000000"/><rect width="5" height="5" x="90" y="105" fill="#000000"/><rect width="5" height="5" x="95" y="105" fill="#000000"/><rect width="5" height="5" x="100" y="105" fill="#000000"/><rect width="5" height="5" x="110" y="105" fill="#000000"/><rect width="5" height="5" x="135" y="105" fill="#000000"/><rect width="5" height="5" x="140" y="105" fill="#000000"/><rect width="5" height="5" x="145" y="105" fill="#000000"/><rect width="5" height="5" x="155" y="105" fill="#000000"/><rect width="5" height="5" x="160" y="105" fill="#000000"/><rect width="5" height="5" x="165" y="105" fill="#000000"/><rect width="5" height="5" x="5" y="110" fill="#000000"/><rect width="5" height="5" x="15" y="110" fill="#000000"/><rect width="5" height="5" x="20" y="110" fill="#000000"/><rect width="5" height="5" x="25" y="110" fill="#000000"/><rect width="5" height="5" x="30" y="110" fill="#000000"/><rect width="5" height="5" x="40" y="110" fill="#000000"/><rect width="5" height="5" x="55" y="110" fill="#000000"/><rect width="5" height="5" x="65" y="110" fill="#000000"/><rect width="5" height="5" x="70" y="110" fill="#000000"/><rect width="5" height="5" x="80" y="110" fill="#000000"/><rect width="5" height="5" x="85" y="110" fill="#000000"/><rect width="5" height="5" x="105" y="110" fill="#000000"/><rect width="5" height="5" x="120" y="110" fill="#000000"/><rect width="5" height="5" x="130" y="110" fill="#000000"/><rect width="5" height="5" x="135" y="110" fill="#000000"/><rect width="5" height="5" x="145" y="110" fill="#000000"/><rect width="5" height="5" x="170" y="110" fill="#000000"/><rect width="5" height="5" x="175" y="110" fill="#000000"/><rect width="5" height="5" x="180" y="110" fill="#000000"/><rect width="5" height="5" x="5" y="115" fill="#000000"/><rect width="5" height="5" x="15" y="115" fill="#000000"/><rect width="5" height="5" x="25" y="115" fill="#000000"/><rect width="5" height="5" x="45" y="115" fill="#000000"/><rect width="5" height="5" x="50" y="115" fill="#000000"/><rect width="5" height="5" x="55" y="115" fill="#000000"/><rect width="5" height="5" x="65" y="115" fill="#000000"/><rect width="5" height="5" x="70" y="115" fill="#000000"/><rect width="5" height="5" x="85" y="115" fill="#000000"/><rect width="5" height="5" x="90" y="115" fill="#000000"/><rect width="5" height="5" x="110" y="115" fill="#000000"/><rect width="5" height="5" x="115" y="115" fill="#000000"/><rect width="5" height="5" x="130" y="115" fill="#000000"/><rect width="5" height="5" x="135" y="115" fill="#000000"/><rect width="5" height="5" x="145" y="115" fill="#000000"/><rect width="5" height="5" x="150" y="115" fill="#000000"/><rect width="5" height="5" x="155" y="115" fill="#000000"/><rect width="5" height="5" x="165" y="115" fill="#000000"/><rect width="5" height="5" x="0" y="120" fill="#000000"/><rect width="5" height="5" x="10" y="120" fill="#000000"/><rect width="5" height="5" x="30" y="120" fill="#000000"/><rect width="5" height="5" x="35" y="120" fill="#000000"/><rect width="5" height="5" x="50" y="120" fill="#000000"/><rect width="5" height="5" x="55" y="120" fill="#000000"/><rect width="5" height="5" x="60" y="120" fill="#000000"/><rect width="5" height="5" x="65" y="120" fill="#000000"/><rect width="5" height="5" x="75" y="120" fill="#000000"/><rect width="5" height="5" x="80" y="120" fill="#000000"/><rect width="5" height="5" x="95" y="120" fill="#000000"/><rect width="5" height="5" x="125" y="120" fill="#000000"/><rect width="5" height="5" x="130" y="120" fill="#000000"/><rect width="5" height="5" x="140" y="120" fill="#000000"/><rect width="5" height="5" x="150" y="120" fill="#000000"/><rect width="5" height="5" x="165" y="120" fill="#000000"/><rect width="5" height="5" x="175" y="120" fill="#000000"/><rect width="5" height="5" x="0" y="125" fill="#000000"/><rect width="5" height="5" x="5" y="125" fill="#000000"/><rect width="5" height="5" x="10" y="125" fill="#000000"/><rect width="5" height="5" x="55" y="125" fill="#000000"/><rect width="5" height="5" x="60" y="125" fill="#000000"/><rect width="5" height="5" x="65" y="125" fill="#000000"/><rect width="5" height="5" x="70" y="125" fill="#000000"/><rect width="5" height="5" x="75" y="125" fill="#000000"/><rect width="5" height="5" x="80" y="125" fill="#000000"/><rect width="5" height="5" x="90" y="125" fill="#000000"/><rect width="5" height="5" x="105" y="125" fill="#000000"/><rect width="5" height="5" x="110" y="125" fill="#000000"/><rect width="5" height="5" x="120" y="125" fill="#000000"/><rect width="5" height="5" x="135" y="125" fill="#000000"/><rect width="5" height="5" x="140" y="125" fill="#000000"/><rect width="5" height="5" x="145" y="125" fill="#000000"/><rect width="5" height="5" x="155" y="125" fill="#000000"/><rect width="5" height="5" x="165" y="125" fill="#000000"/><rect width="5" height="5" x="0" y="130" fill="#000000"/><rect width="5" height="5" x="20" y="130" fill="#000000"/><rect width="5" height="5" x="25" y="130" fill="#000000"/><rect width="5" height="5" x="30" y="130" fill="#000000"/><rect width="5" height="5" x="40" y="130" fill="#000000"/><rect width="5" height="5" x="60" y="130" fill="#000000"/><rect width="5" height="5" x="65" y="130" fill="#000000"/><rect width="5" height="5" x="85" y="130" fill="#000000"/><rect width="5" height="5" x="95" y="130" fill="#000000"/><rect width="5" height="5" x="110" y="130" fill="#000000"/><rect width="5" height="5" x="125" y="130" fill="#000000"/><rect width="5" height="5" x="135" y="130" fill="#000000"/><rect width="5" height="5" x="140" y="130" fill="#000000"/><rect width="5" height="5" x="150" y="130" fill="#000000"/><rect width="5" height="5" x="155" y="130" fill="#000000"/><rect width="5" height="5" x="160" y="130" fill="#000000"/><rect width="5" height="5" x="165" y="130" fill="#000000"/><rect width="5" height="5" x="175" y="130" fill="#000000"/><rect width="5" height="5" x="180" y="130" fill="#000000"/><rect width="5" height="5" x="0" y="135" fill="#000000"/><rect width="5" height="5" x="10" y="135" fill="#000000"/><rect width="5" height="5" x="15" y="135" fill="#000000"/><rect width="5" height="5" x="40" y="135" fill="#000000"/><rect width="5" height="5" x="45" y="135" fill="#000000"/><rect width="5" height="5" x="60" y="135" fill="#000000"/><rect width="5" height="5" x="65" y="135" fill="#000000"/><rect width="5" height="5" x="90" y="135" fill="#000000"/><rect width="5" height="5" x="95" y="135" fill="#000000"/><rect width="5" height="5" x="100" y="135" fill="#000000"/><rect width="5" height="5" x="120" y="135" fill="#000000"/><rect width="5" height="5" x="135" y="135" fill="#000000"/><rect width="5" height="5" x="140" y="135" fill="#000000"/><rect width="5" height="5" x="145" y="135" fill="#000000"/><rect width="5" height="5" x="155" y="135" fill="#000000"/><rect width="5" height="5" x="165" y="135" fill="#000000"/><rect width="5" height="5" x="170" y="135" fill="#000000"/><rect width="5" height="5" x="175" y="135" fill="#000000"/><rect width="5" height="5" x="0" y="140" fill="#000000"/><rect width="5" height="5" x="15" y="140" fill="#000000"/><rect width="5" height="5" x="20" y="140" fill="#000000"/><rect width="5" height="5" x="30" y="140" fill="#000000"/><rect width="5" height="5" x="35" y="140" fill="#000000"/><rect width="5" height="5" x="40" y="140" fill="#000000"/><rect width="5" height="5" x="60" y="140" fill="#000000"/><rect width="5" height="5" x="65" y="140" fill="#000000"/><rect width="5" height="5" x="70" y="140" fill="#000000"/><rect width="5" height="5" x="75" y="140" fill="#000000"/><rect width="5" height="5" x="85" y="140" fill="#000000"/><rect width="5" height="5" x="90" y="140" fill="#000000"/><rect width="5" height="5" x="95" y="140" fill="#000000"/><rect width="5" height="5" x="100" y="140" fill="#000000"/><rect width="5" height="5" x="105" y="140" fill="#000000"/><rect width="5" height="5" x="110" y="140" fill="#000000"/><rect width="5" height="5" x="120" y="140" fill="#000000"/><rect width="5" height="5" x="125" y="140" fill="#000000"/><rect width="5" height="5" x="130" y="140" fill="#000000"/><rect width="5" height="5" x="135" y="140" fill="#000000"/><rect width="5" height="5" x="140" y="140" fill="#000000"/><rect width="5" height="5" x="145" y="140" fill="#000000"/><rect width="5" height="5" x="150" y="140" fill="#000000"/><rect width="5" height="5" x="155" y="140" fill="#000000"/><rect width="5" height="5" x="160" y="140" fill="#000000"/><rect width="5" height="5" x="165" y="140" fill="#000000"/><rect width="5" height="5" x="170" y="140" fill="#000000"/><rect width="5" height="5" x="175" y="140" fill="#000000"/><rect width="5" height="5" x="40" y="145" fill="#000000"/><rect width="5" height="5" x="55" y="145" fill="#000000"/><rect width="5" height="5" x="65" y="145" fill="#000000"/><rect width="5" height="5" x="70" y="145" fill="#000000"/><rect width="5" height="5" x="85" y="145" fill="#000000"/><rect width="5" height="5" x="90" y="145" fill="#000000"/><rect width="5" height="5" x="105" y="145" fill="#000000"/><rect width="5" height="5" x="110" y="145" fill="#000000"/><rect width="5" height="5" x="115" y="145" fill="#000000"/><rect width="5" height="5" x="140" y="145" fill="#000000"/><rect width="5" height="5" x="160" y="145" fill="#000000"/><rect width="5" height="5" x="165" y="145" fill="#000000"/><rect width="5" height="5" x="0" y="150" fill="#000000"/><rect width="5" height="5" x="5" y="150" fill="#000000"/><rect width="5" height="5" x="10" y="150" fill="#000000"/><rect width="5" height="5" x="15" y="150" fill="#000000"/><rect width="5" height="5" x="20" y="150" fill="#000000"/><rect width="5" height="5" x="25" y="150" fill="#000000"/><rect width="5" height="5" x="30" y="150" fill="#000000"/><rect width="5" height="5" x="45" y="150" fill="#000000"/><rect width="5" height="5" x="50" y="150" fill="#000000"/><rect width="5" height="5" x="55" y="150" fill="#000000"/><rect width="5" height="5" x="65" y="150" fill="#000000"/><rect width="5" height="5" x="75" y="150" fill="#000000"/><rect width="5" height="5" x="85" y="150" fill="#000000"/><rect width="5" height="5" x="90" y="150" fill="#000000"/><rect width="5" height="5" x="95" y="150" fill="#000000"/><rect width="5" height="5" x="105" y="150" fill="#000000"/><rect width="5" height="5" x="110" y="150" fill="#000000"/><rect width="5" height="5" x="115" y="150" fill="#000000"/><rect width="5" height="5" x="130" y="150" fill="#000000"/><rect width="5" height="5" x="140" y="150" fill="#000000"/><rect width="5" height="5" x="150" y="150" fill="#000000"/><rect width="5" height="5" x="160" y="150" fill="#000000"/><rect width="5" height="5" x="165" y="150" fill="#000000"/><rect width="5" height="5" x="170" y="150" fill="#000000"/><rect width="5" height="5" x="180" y="150" fill="#000000"/><rect width="5" height="5" x="0" y="155" fill="#000000"/><rect width="5" height="5" x="30" y="155" fill="#000000"/><rect width="5" height="5" x="40" y="155" fill="#000000"/><rect width="5" height="5" x="45" y="155" fill="#000000"/><rect width="5" height="5" x="50" y="155" fill="#000000"/><rect width="5" height="5" x="60" y="155" fill="#000000"/><rect width="5" height="5" x="65" y="155" fill="#000000"/><rect width="5" height="5" x="85" y="155" fill="#000000"/><rect width="5" height="5" x="90" y="155" fill="#000000"/><rect width="5" height="5" x="95" y="155" fill="#000000"/><rect width="5" height="5" x="110" y="155" fill="#000000"/><rect width="5" height="5" x="115" y="155" fill="#000000"/><rect width="5" height="5" x="130" y="155" fill="#000000"/><rect width="5" height="5" x="140" y="155" fill="#000000"/><rect width="5" height="5" x="160" y="155" fill="#000000"/><rect width="5" height="5" x="165" y="155" fill="#000000"/><rect width="5" height="5" x="175" y="155" fill="#000000"/><rect width="5" height="5" x="180" y="155" fill="#000000"/><rect width="5" height="5" x="0" y="160" fill="#000000"/><rect width="5" height="5" x="10" y="160" fill="#000000"/><rect width="5" height="5" x="15" y="160" fill="#000000"/><rect width="5" height="5" x="20" y="160" fill="#000000"/><rect width="5" height="5" x="30" y="160" fill="#000000"/><rect width="5" height="5" x="45" y="160" fill="#000000"/><rect width="5" height="5" x="50" y="160" fill="#000000"/><rect width="5" height="5" x="60" y="160" fill="#000000"/><rect width="5" height="5" x="65" y="160" fill="#000000"/><rect width="5" height="5" x="70" y="160" fill="#000000"/><rect width="5" height="5" x="75" y="160" fill="#000000"/><rect width="5" height="5" x="80" y="160" fill="#000000"/><rect width="5" height="5" x="100" y="160" fill="#000000"/><rect width="5" height="5" x="105" y="160" fill="#000000"/><rect width="5" height="5" x="110" y="160" fill="#000000"/><rect width="5" height="5" x="115" y="160" fill="#000000"/><rect width="5" height="5" x="120" y="160" fill="#000000"/><rect width="5" height="5" x="125" y="160" fill="#000000"/><rect width="5" height="5" x="130" y="160" fill="#000000"/><rect width="5" height="5" x="135" y="160" fill="#000000"/><rect width="5" height="5" x="140" y="160" fill="#000000"/><rect width="5" height="5" x="145" y="160" fill="#000000"/><rect width="5" height="5" x="150" y="160" fill="#000000"/><rect width="5" height="5" x="155" y="160" fill="#000000"/><rect width="5" height="5" x="160" y="160" fill="#000000"/><rect width="5" height="5" x="170" y="160" fill="#000000"/><rect width="5" height="5" x="175" y="160" fill="#000000"/><rect width="5" height="5" x="180" y="160" fill="#000000"/><rect width="5" height="5" x="0" y="165" fill="#000000"/><rect width="5" height="5" x="10" y="165" fill="#000000"/><rect width="5" height="5" x="15" y="165" fill="#000000"/><rect width="5" height="5" x="20" y="165" fill="#000000"/><rect width="5" height="5" x="30" y="165" fill="#000000"/><rect width="5" height="5" x="45" y="165" fill="#000000"/><rect width="5" height="5" x="55" y="165" fill="#000000"/><rect width="5" height="5" x="60" y="165" fill="#000000"/><rect width="5" height="5" x="65" y="165" fill="#000000"/><rect width="5" height="5" x="70" y="165" fill="#000000"/><rect width="5" height="5" x="85" y="165" fill="#000000"/><rect width="5" height="5" x="90" y="165" fill="#000000"/><rect width="5" height="5" x="95" y="165" fill="#000000"/><rect width="5" height="5" x="130" y="165" fill="#000000"/><rect width="5" height="5" x="135" y="165" fill="#000000"/><rect width="5" height="5" x="140" y="165" fill="#000000"/><rect width="5" height="5" x="150" y="165" fill="#000000"/><rect width="5" height="5" x="165" y="165" fill="#000000"/><rect width="5" height="5" x="0" y="170" fill="#000000"/><rect width="5" height="5" x="10" y="170" fill="#000000"/><rect width="5" height="5" x="15" y="170" fill="#000000"/><rect width="5" height="5" x="20" y="170" fill="#000000"/><rect width="5" height="5" x="30" y="170" fill="#000000"/><rect width="5" height="5" x="50" y="170" fill="#000000"/><rect width="5" height="5" x="55" y="170" fill="#000000"/><rect width="5" height="5" x="60" y="170" fill="#000000"/><rect width="5" height="5" x="65" y="170" fill="#000000"/><rect width="5" height="5" x="70" y="170" fill="#000000"/><rect width="5" height="5" x="75" y="170" fill="#000000"/><rect width="5" height="5" x="95" y="170" fill="#000000"/><rect width="5" height="5" x="100" y="170" fill="#000000"/><rect width="5" height="5" x="115" y="170" fill="#000000"/><rect width="5" height="5" x="120" y="170" fill="#000000"/><rect width="5" height="5" x="130" y="170" fill="#000000"/><rect width="5" height="5" x="145" y="170" fill="#000000"/><rect width="5" height="5" x="155" y="170" fill="#000000"/><rect width="5" height="5" x="170" y="170" fill="#000000"/><rect width="5" height="5" x="180" y="170" fill="#000000"/><rect width="5" height="5" x="0" y="175" fill="#000000"/><rect width="5" height="5" x="30" y="175" fill="#000000"/><rect width="5" height="5" x="50" y="175" fill="#000000"/><rect width="5" height="5" x="60" y="175" fill="#000000"/><rect width="5" height="5" x="65" y="175" fill="#000000"/><rect width="5" height="5" x="70" y="175" fill="#000000"/><rect width="5" height="5" x="90" y="175" fill="#000000"/><rect width="5" height="5" x="110" y="175" fill="#000000"/><rect width="5" height="5" x="115" y="175" fill="#000000"/><rect width="5" height="5" x="140" y="175" fill="#000000"/><rect width="5" height="5" x="145" y="175" fill="#000000"/><rect width="5" height="5" x="155" y="175" fill="#000000"/><rect width="5" height="5" x="165" y="175" fill="#000000"/><rect width="5" height="5" x="180" y="175" fill="#000000"/><rect width="5" height="5" x="0" y="180" fill="#000000"/><rect width="5" height="5" x="5" y="180" fill="#000000"/><rect width="5" height="5" x="10" y="180" fill="#000000"/><rect width="5" height="5" x="15" y="180" fill="#000000"/><rect width="5" height="5" x="20" y="180" fill="#000000"/><rect width="5" height="5" x="25" y="180" fill="#000000"/><rect width="5" height="5" x="30" y="180" fill="#000000"/><rect width="5" height="5" x="45" y="180" fill="#000000"/><rect width="5" height="5" x="50" y="180" fill="#000000"/><rect width="5" height="5" x="80" y="180" fill="#000000"/><rect width="5" height="5" x="105" y="180" fill="#000000"/><rect width="5" height="5" x="110" y="180" fill="#000000"/><rect width="5" height="5" x="120" y="180" fill="#000000"/><rect width="5" height="5" x="140" y="180" fill="#000000"/><rect width="5" height="5" x="145" y="180" fill="#000000"/><rect width="5" height="5" x="180" y="180" fill="#000000"/></svg>