<?xml version="1.0" standalone="yes"?><svg version="1.1" xmlns="http://www.w3.org/2000/svg" xmlns:xlink="http://www.w3.org/1999/xlink" xmlns:ev="http://www.w3.org/2001/xml-events" width="185" height="185" shape-rendering="crispEdges"><rect width="5" height="5" x="0" y="0" fill="#000000"/><rect width="5" height="5" x="5" y="0" fill="#000000"/><rect width="5" height="5" x="10" y="0" fill="#000000"/><rect width="5" height="5" x="15" y="0" fill="#000000"/><rect width="5" height="5" x="20" y="0" fill="#000000"/><rect width="5" height="5" x="25" y="0" fill="#000000"/><rect width="5" height="5" x="30" y="0" fill="#000000"/><rect width="5" height="5" x="40" y="0" fill="#000000"/><rect width="5" height="5" x="65" y="0" fill="#000000"/><rect width="5" height="5" x="70" y="0" fill="#000000"/><rect width="5" height="5" x="80" y="0" fill="#000000"/><rect width="5" height="5" x="90" y="0" fill="#000000"/><rect width="5" height="5" x="100" y="0" fill="#000000"/><rect width="5" height="5" x="105" y="0" fill="#000000"/><rect width="5" height="5" x="115" y="0" fill="#000000"/><rect width="5" height="5" x="120" y="0" fill="#000000"/><rect width="5" height="5" x="125" y="0" fill="#000000"/><rect width="5" height="5" x="150" y="0" fill="#000000"/><rect width="5" height="5" x="155" y="0" fill="#000000"/><rect width="5" height="5" x="160" y="0" fill="#000000"/><rect width="5" height="5" x="165" y="0" fill="#000000"/><rect width="5" height="5" x="170" y="0" fill="#000000"/><rect width="5" height="5" x="175" y="0" fill="#000000"/><rect width="5" height="5" x="180" y="0" fill="#000000"/><rect width="5" height="5" x="0" y="5" fill="#000000"/><rect width="5" height="5" x="30" y="5" fill="#000000"/><rect width="5" height="5" x="40" y="5" fill="#000000"/><rect width="5" height="5" x="55" y="5" fill="#000000"/><rect width="5" height="5" x="60" y="5" fill="#000000"/><rect width="5" height="5" x="85" y="5" fill="#000000"/><rect width="5" height="5" x="100" y="5" fill="#000000"/><rect width="5" height="5" x="120" y="5" fill="#000000"/><rect width="5" height="5" x="125" y="5" fill="#000000"/><rect width="5" height="5" x="130" y="5" fill="#000000"/><rect width="5" height="5" x="135" y="5" fill="#000000"/><rect width="5" height="5" x="140" y="5" fill="#000000"/><rect width="5" height="5" x="150" y="5" fill="#000000"/><rect width="5" height="5" x="180" y="5" fill="#000000"/><rect width="5" height="5" x="0" y="10" fill="#000000"/><rect width="5" height="5" x="10" y="10" fill="#000000"/><rect width="5" height="5" x="15" y="10" fill="#000000"/><rect width="5" height="5" x="20" y="10" fill="#000000"/><rect width="5" height="5" x="30" y="10" fill="#000000"/><rect width="5" height="5" x="40" y="10" fill="#000000"/><rect width="5" height="5" x="45" y="10" fill="#000000"/><rect width="5" height="5" x="50" y="10" fill="#000000"/><rect width="5" height="5" x="60" y="10" fill="#000000"/><rect width="5" height="5" x="70" y="10" fill="#000000"/><rect width="5" height="5" x="75" y="10" fill="#000000"/><rect width="5" height="5" x="80" y="10" fill="#000000"/><rect width="5" height="5" x="90" y="10" fill="#000000"/><rect width="5" height="5" x="100" y="10" fill="#000000"/><rect width="5" height="5" x="130" y="10" fill="#000000"/><rect width="5" height="5" x="135" y="10" fill="#000000"/><rect width="5" height="5" x="140" y="10" fill="#000000"/><rect width="5" height="5" x="150" y="10" fill="#000000"/><rect width="5" height="5" x="160" y="10" fill="#000000"/><rect width="5" height="5" x="165" y="10" fill="#000000"/><rect width="5" height="5" x="170" y="10" fill="#000000"/><rect width="5" height="5" x="180" y="10" fill="#000000"/><rect width="5" height="5" x="0" y="15" fill="#000000"/><rect width="5" height="5" x="10" y="15" fill="#000000"/><rect width="5" height="5" x="15" y="15" fill="#000000"/><rect width="5" height="5" x="20" y="15" fill="#000000"/><rect width="5" height="5" x="30" y="15" fill="#000000"/><rect width="5" height="5" x="45" y="15" fill="#000000"/><rect width="5" height="5" x="55" y="15" fill="#000000"/><rect width="5" height="5" x="60" y="15" fill="#000000"/><rect width="5" height="5" x="65" y="15" fill="#000000"/><rect width="5" height="5" x="90" y="15" fill="#000000"/><rect width="5" height="5" x="95" y="15" fill="#000000"/><rect width="5" height="5" x="105" y="15" fill="#000000"/><rect width="5" height="5" x="115" y="15" fill="#000000"/><rect width="5" height="5" x="125" y="15" fill="#000000"/><rect width="5" height="5" x="130" y="15" fill="#000000"/><rect width="5" height="5" x="135" y="15" fill="#000000"/><rect width="5" height="5" x="150" y="15" fill="#000000"/><rect width="5" height="5" x="160" y="15" fill="#000000"/><rect width="5" height="5" x="165" y="15" fill="#000000"/><rect width="5" height="5" x="170" y="15" fill="#000000"/><rect width="5" height="5" x="180" y="15" fill="#000000"/><rect width="5" height="5" x="0" y="20" fill="#000000"/><rect width="5" height="5" x="10" y="20" fill="#000000"/><rect width="5" height="5" x="15" y="20" fill="#000000"/><rect width="5" height="5" x="20" y="20" fill="#000000"/><rect width="5" height="5" x="30" y="20" fill="#000000"/><rect width="5" height="5" x="50" y="20" fill="#000000"/><rect width="5" height="5" x="55" y="20" fill="#000000"/><rect width="5" height="5" x="70" y="20" fill="#000000"/><rect width="5" height="5" x="75" y="20" fill="#000000"/><rect width="5" height="5" x="80" y="20" fill="#000000"/><rect width="5" height="5" x="85" y="20" fill="#000000"/><rect width="5" height="5" x="95" y="20" fill="#000000"/><rect width="5" height="5" x="110" y="20" fill="#000000"/><rect width="5" height="5" x="125" y="20" fill="#000000"/><rect width="5" height="5" x="150" y="20" fill="#000000"/><rect width="5" height="5" x="160" y="20" fill="#000000"/><rect width="5" height="5" x="165" y="20" fill="#000000"/><rect width="5" height="5" x="170" y="20" fill="#000000"/><rect width="5" height="5" x="180" y="20" fill="#000000"/><rect width="5" height="5" x="0" y="25" fill="#000000"/><rect width="5" height="5" x="30" y="25" fill="#000000"/><rect width="5" height="5" x="40" y="25" fill="#000000"/><rect width="5" height="5" x="50" y="25" fill="#000000"/><rect width="5" height="5" x="60" y="25" fill="#000000"/><rect width="5" height="5" x="80" y="25" fill="#000000"/><rect width="5" height="5" x="85" y="25" fill="#000000"/><rect width="5" height="5" x="90" y="25" fill="#000000"/><rect width="5" height="5" x="100" y="25" fill="#000000"/><rect width="5" height="5" x="110" y="25" fill="#000000"/><rect width="5" height="5" x="120" y="25" fill="#000000"/><rect width="5" height="5" x="125" y="25" fill="#000000"/><rect width="5" height="5" x="130" y="25" fill="#000000"/><rect width="5" height="5" x="135" y="25" fill="#000000"/><rect width="5" height="5" x="140" y="25" fill="#000000"/><rect width="5" height="5" x="150" y="25" fill="#000000"/><rect width="5" height="5" x="180" y="25" fill="#000000"/><rect width="5" height="5" x="0" y="30" fill="#000000"/><rect width="5" height="5" x="5" y="30" fill="#000000"/><rect width="5" height="5" x="10" y="30" fill="#000000"/><rect width="5" height="5" x="15" y="30" fill="#000000"/><rect width="5" height="5" x="20" y="30" fill="#000000"/><rect width="5" height="5" x="25" y="30" fill="#000000"/><rect width="5" height="5" x="30" y="30" fill="#000000"/><rect width="5" height="5" x="40" y="30" fill="#000000"/><rect width="5" height="5" x="50" y="30" fill="#000000"/><rect width="5" height="5" x="60" y="30" fill="#000000"/><rect width="5" height="5" x="70" y="30" fill="#000000"/><rect width="5" height="5" x="80" y="30" fill="#000000"/><rect width="5" height="5" x="90" y="30" fill="#000000"/><rect width="5" height="5" x="100" y="30" fill="#000000"/><rect width="5" height="5" x="110" y="30" fill="#000000"/><rect width="5" height="5" x="120" y="30" fill="#000000"/><rect width="5" height="5" x="130" y="30" fill="#000000"/><rect width="5" height="5" x="140" y="30" fill="#000000"/><rect width="5" height="5" x="150" y="30" fill="#000000"/><rect width="5" height="5" x="155" y="30" fill="#000000"/><rect width="5" height="5" x="160" y="30" fill="#000000"/><rect width="5" height="5" x="165" y="30" fill="#000000"/><rect width="5" height="5" x="170" y="30" fill="#000000"/><rect width="5" height="5" x="175" y="30" fill="#000000"/><rect width="5" height="5" x="180" y="30" fill="#000000"/><rect width="5" height="5" x="40" y="35" fill="#000000"/><rect width="5" height="5" x="50" y="35" fill="#000000"/><rect width="5" height="5" x="60" y="35" fill="#000000"/><rect width="5" height="5" x="65" y="35" fill="#000000"/><rect width="5" height="5" x="70" y="35" fill="#000000"/><rect width="5" height="5" x="80" y="35" fill="#000000"/><rect width="5" height="5" x="85" y="35" fill="#000000"/><rect width="5" height="5" x="110" y="35" fill="#000000"/><rect width="5" height="5" x="115" y="35" fill="#000000"/><rect width="5" height="5" x="120" y="35" fill="#000000"/><rect width="5" height="5" x="125" y="35" fill="#000000"/><rect width="5" height="5" x="140" y="35" fill="#000000"/><rect width="5" height="5" x="10" y="40" fill="#000000"/><rect width="5" height="5" x="15" y="40" fill="#000000"/><rect width="5" height="5" x="20" y="40" fill="#000000"/><rect width="5" height="5" x="30" y="40" fill="#000000"/><rect width="5" height="5" x="40" y="40" fill="#000000"/><rect width="5" height="5" x="50" y="40" fill="#000000"/><rect width="5" height="5" x="55" y="40" fill="#000000"/><rect width="5" height="5" x="60" y="40" fill="#000000"/><rect width="5" height="5" x="70" y="40" fill="#000000"/><rect width="5" height="5" x="75" y="40" fill="#000000"/><rect width="5" height="5" x="80" y="40" fill="#000000"/><rect width="5" height="5" x="85" y="40" fill="#000000"/><rect width="5" height="5" x="95" y="40" fill="#000000"/><rect width="5" height="5" x="100" y="40" fill="#000000"/><rect width="5" height="5" x="115" y="40" fill="#000000"/><rect width="5" height="5" x="120" y="40" fill="#000000"/><rect width="5" height="5" x="130" y="40" fill="#000000"/><rect width="5" height="5" x="145" y="40" fill="#000000"/><rect width="5" height="5" x="150" y="40" fill="#000000"/><rect width="5" height="5" x="155" y="40" fill="#000000"/><rect width="5" height="5" x="170" y="40" fill="#000000"/><rect width="5" height="5" x="175" y="40" fill="#000000"/><rect width="5" height="5" x="180" y="40" fill="#000000"/><rect width="5" height="5" x="0" y="45" fill="#000000"/><rect width="5" height="5" x="5" y="45" fill="#000000"/><rect width="5" height="5" x="10" y="45" fill="#000000"/><rect width="5" height="5" x="25" y="45" fill="#000000"/><rect width="5" height="5" x="35" y="45" fill="#000000"/><rect width="5" height="5" x="40" y="45" fill="#000000"/><rect width="5" height="5" x="55" y="45" fill="#000000"/><rect width="5" height="5" x="70" y="45" fill="#000000"/><rect width="5" height="5" x="75" y="45" fill="#000000"/><rect width="5" height="5" x="85" y="45" fill="#000000"/><rect width="5" height="5" x="95" y="45" fill="#000000"/><rect width="5" height="5" x="100" y="45" fill="#000000"/><rect width="5" height="5" x="125" y="45" fill="#000000"/><rect width="5" height="5" x="135" y="45" fill="#000000"/><rect width="5" height="5" x="155" y="45" fill="#000000"/><rect width="5" height="5" x="170" y="45" fill="#000000"/><rect width="5" height="5" x="0" y="50" fill="#000000"/><rect width="5" height="5" x="5" y="50" fill="#000000"/><rect width="5" height="5" x="10" y="50" fill="#000000"/><rect width="5" height="5" x="15" y="50" fill="#000000"/><rect width="5" height="5" x="20" y="50" fill="#000000"/><rect width="5" height="5" x="25" y="50" fill="#000000"/><rect width="5" height="5" x="30" y="50" fill="#000000"/><rect width="5" height="5" x="35" y="50" fill="#000000"/><rect width="5" height="5" x="40" y="50" fill="#000000"/><rect width="5" height="5" x="55" y="50" fill="#000000"/><rect width="5" height="5" x="60" y="50" fill="#000000"/><rect width="5" height="5" x="75" y="50" fill="#000000"/><rect width="5" height="5" x="100" y="50" fill="#000000"/><rect width="5" height="5" x="105" y="50" fill="#000000"/><rect width="5" height="5" x="110" y="50" fill="#000000"/><rect width="5" height="5" x="115" y="50" fill="#000000"/><rect width="5" height="5" x="120" y="50" fill="#000000"/><rect width="5" height="5" x="125" y="50" fill="#000000"/><rect width="5" height="5" x="130" y="50" fill="#000000"/><rect width="5" height="5" x="135" y="50" fill="#000000"/><rect width="5" height="5" x="140" y="50" fill="#000000"/><rect width="5" height="5" x="150" y="50" fill="#000000"/><rect width="5" height="5" x="180" y="50" fill="#000000"/><rect width="5" height="5" x="5" y="55" fill="#000000"/><rect width="5" height="5" x="15" y="55" fill="#000000"/><rect width="5" height="5" x="20" y="55" fill="#000000"/><rect width="5" height="5" x="35" y="55" fill="#000000"/><rect width="5" height="5" x="40" y="55" fill="#000000"/><rect width="5" height="5" x="45" y="55" fill="#000000"/><rect width="5" height="5" x="55" y="55" fill="#000000"/><rect width="5" height="5" x="90" y="55" fill="#000000"/><rect width="5" height="5" x="95" y="55" fill="#000000"/><rect width="5" height="5" x="100" y="55" fill="#000000"/><rect width="5" height="5" x="110" y="55" fill="#000000"/><rect width="5" height="5" x="115" y="55" fill="#000000"/><rect width="5" height="5" x="130" y="55" fill="#000000"/><rect width="5" height="5" x="140" y="55" fill="#000000"/><rect width="5" height="5" x="150" y="55" fill="#000000"/><rect width="5" height="5" x="155" y="55" fill="#000000"/><rect width="5" height="5" x="175" y="55" fill="#000000"/><rect width="5" height="5" x="180" y="55" fill="#000000"/><rect width="5" height="5" x="5" y="60" fill="#000000"/><rect width="5" height="5" x="15" y="60" fill="#000000"/><rect width="5" height="5" x="25" y="60" fill="#000000"/><rect width="5" height="5" x="30" y="60" fill="#000000"/><rect width="5" height="5" x="45" y="60" fill="#000000"/><rect width="5" height="5" x="55" y="60" fill="#000000"/><rect width="5" height="5" x="60" y="60" fill="#000000"/><rect width="5" height="5" x="70" y="60" fill="#000000"/><rect width="5" height="5" x="75" y="60" fill="#000000"/><rect width="5" height="5" x="95" y="60" fill="#000000"/><rect width="5" height="5" x="100" y="60" fill="#000000"/><rect width="5" height="5" x="105" y="60" fill="#000000"/><rect width="5" height="5" x="115" y="60" fill="#000000"/><rect width="5" height="5" x="125" y="60" fill="#000000"/><rect width="5" height="5" x="130" y="60" fill="#000000"/><rect width="5" height="5" x="145" y="60" fill="#000000"/><rect width="5" height="5" x="150" y="60" fill="#000000"/><rect width="5" height="5" x="160" y="60" fill="#000000"/><rect width="5" height="5" x="165" y="60" fill="#000000"/><rect width="5" height="5" x="170" y="60" fill="#000000"/><rect width="5" height="5" x="175" y="60" fill="#000000"/><rect width="5" height="5" x="0" y="65" fill="#000000"/><rect width="5" height="5" x="5" y="65" fill="#000000"/><rect width="5" height="5" x="15" y="65" fill="#000000"/><rect width="5" height="5" x="25" y="65" fill="#000000"/><rect width="5" height="5" x="40" y="65" fill="#000000"/><rect width="5" height="5" x="55" y="65" fill="#000000"/><rect width="5" height="5" x="65" y="65" fill="#000000"/><rect width="5" height="5" x="90" y="65" fill="#000000"/><rect width="5" height="5" x="95" y="65" fill="#000000"/><rect width="5" height="5" x="100" y="65" fill="#000000"/><rect width="5" height="5" x="105" y="65" fill="#000000"/><rect width="5" height="5" x="120" y="65" fill="#000000"/><rect width="5" height="5" x="125" y="65" fill="#000000"/><rect width="5" height="5" x="130" y="65" fill="#000000"/><rect width="5" height="5" x="145" y="65" fill="#000000"/><rect width="5" height="5" x="155" y="65" fill="#000000"/><rect width="5" height="5" x="165" y="65" fill="#000000"/><rect width="5" height="5" x="170" y="65" fill="#000000"/><rect width="5" height="5" x="175" y="65" fill="#000000"/><rect width="5" height="5" x="10" y="70" fill="#000000"/><rect width="5" height="5" x="15" y="70" fill="#000000"/><rect width="5" height="5" x="25" y="70" fill="#000000"/><rect width="5" height="5" x="30" y="70" fill="#000000"/><rect width="5" height="5" x="75" y="70" fill="#000000"/><rect width="5" height="5" x="100" y="70" fill="#000000"/><rect width="5" height="5" x="105" y="70" fill="#000000"/><rect width="5" height="5" x="110" y="70" fill="#000000"/><rect width="5" height="5" x="125" y="70" fill="#000000"/><rect width="5" height="5" x="130" y="70" fill="#000000"/><rect width="5" height="5" x="135" y="70" fill="#000000"/><rect width="5" height="5" x="140" y="70" fill="#000000"/><rect width="5" height="5" x="145" y="70" fill="#000000"/><rect width="5" height="5" x="155" y="70" fill="#000000"/><rect width="5" height="5" x="165" y="70" fill="#000000"/><rect width="5" height="5" x="175" y="70" fill="#000000"/><rect width="5" height="5" x="180" y="70" fill="#000000"/><rect width="5" height="5" x="0" y="75" fill="#000000"/><rect width="5" height="5" x="10" y="75" fill="#000000"/><rect width="5" height="5" x="20" y="75" fill="#000000"/><rect width="5" height="5" x="25" y="75" fill="#000000"/><rect width="5" height="5" x="35" y="75" fill="#000000"/><rect width="5" height="5" x="65" y="75" fill="#000000"/><rect width="5" height="5" x="85" y="75" fill="#000000"/><rect width="5" height="5" x="95" y="75" fill="#000000"/><rect width="5" height="5" x="100" y="75" fill="#000000"/><rect width="5" height="5" x="105" y="75" fill="#000000"/><rect width="5" height="5" x="115" y="75" fill="#000000"/><rect width="5" height="5" x="120" y="75" fill="#000000"/><rect width="5" height="5" x="145" y="75" fill="#000000"/><rect width="5" height="5" x="155" y="75" fill="#000000"/><rect width="5" height="5" x="175" y="75" fill="#000000"/><rect width="5" height="5" x="15" y="80" fill="#000000"/><rect width="5" height="5" x="25" y="80" fill="#000000"/><rect width="5" height="5" x="30" y="80" fill="#000000"/><rect width="5" height="5" x="35" y="80" fill="#000000"/><rect width="5" height="5" x="40" y="80" fill="#000000"/><rect width="5" height="5" x="50" y="80" fill="#000000"/><rect width="5" height="5" x="65" y="80" fill="#000000"/><rect width="5" height="5" x="75" y="80" fill="#000000"/><rect width="5" height="5" x="80" y="80" fill="#000000"/><rect width="5" height="5" x="90" y="80" fill="#000000"/><rect width="5" height="5" x="95" y="80" fill="#000000"/><rect width="5" height="5" x="110" y="80" fill="#000000"/><rect width="5" height="5" x="115" y="80" fill="#000000"/><rect width="5" height="5" x="125" y="80" fill="#000000"/><rect width="5" height="5" x="130" y="80" fill="#000000"/><rect width="5" height="5" x="135" y="80" fill="#000000"/><rect width="5" height="5" x="145" y="80" fill="#000000"/><rect width="5" height="5" x="150" y="80" fill="#000000"/><rect width="5" height="5" x="160" y="80" fill="#000000"/><rect width="5" height="5" x="170" y="80" fill="#000000"/><rect width="5" height="5" x="180" y="80" fill="#000000"/><rect width="5" height="5" x="0" y="85" fill="#000000"/><rect width="5" height="5" x="10" y="85" fill="#000000"/><rect width="5" height="5" x="25" y="85" fill="#000000"/><rect width="5" height="5" x="40" y="85" fill="#000000"/><rect width="5" height="5" x="45" y="85" fill="#000000"/><rect width="5" height="5" x="60" y="85" fill="#000000"/><rect width="5" height="5" x="75" y="85" fill="#000000"/><rect width="5" height="5" x="95" y="85" fill="#000000"/><rect width="5" height="5" x="115" y="85" fill="#000000"/><rect width="5" height="5" x="125" y="85" fill="#000000"/><rect width="5" height="5" x="140" y="85" fill="#000000"/><rect width="5" height="5" x="155" y="85" fill="#000000"/><rect width="5" height="5" x="10" y="90" fill="#000000"/><rect width="5" height="5" x="20" y="90" fill="#000000"/><rect width="5" height="5" x="25" y="90" fill="#000000"/><rect width="5" height="5" x="30" y="90" fill="#000000"/><rect width="5" height="5" x="40" y="90" fill="#000000"/><rect width="5" height="5" x="50" y="90" fill="#000000"/><rect width="5" height="5" x="60" y="90" fill="#000000"/><rect width="5" height="5" x="70" y="90" fill="#000000"/><rect width="5" height="5" x="75" y="90" fill="#000000"/><rect width="5" height="5" x="85" y="90" fill="#000000"/><rect width="5" height="5" x="95" y="90" fill="#000000"/><rect width="5" height="5" x="110" y="90" fill="#000000"/><rect width="5" height="5" x="115" y="90" fill="#000000"/><rect width="5" height="5" x="120" y="90" fill="#000000"/><rect width="5" height="5" x="130" y="90" fill="#000000"/><rect width="5" height="5" x="135" y="90" fill="#000000"/><rect width="5" height="5" x="140" y="90" fill="#000000"/><rect width="5" height="5" x="145" y="90" fill="#000000"/><rect width="5" height="5" x="160" y="90" fill="#000000"/><rect width="5" height="5" x="165" y="90" fill="#000000"/><rect width="5" height="5" x="175" y="90" fill="#000000"/><rect width="5" height="5" x="180" y="90" fill="#000000"/><rect width="5" height="5" x="0" y="95" fill="#000000"/><rect width="5" height="5" x="5" y="95" fill="#000000"/><rect width="5" height="5" x="10" y="95" fill="#000000"/><rect width="5" height="5" x="20" y="95" fill="#000000"/><rect width="5" height="5" x="25" y="95" fill="#000000"/><rect width="5" height="5" x="40" y="95" fill="#000000"/><rect width="5" height="5" x="45" y="95" fill="#000000"/><rect width="5" height="5" x="55" y="95" fill="#000000"/><rect width="5" height="5" x="65" y="95" fill="#000000"/><rect width="5" height="5" x="70" y="95" fill="#000000"/><rect width="5" height="5" x="75" y="95" fill="#000000"/><rect width="5" height="5" x="80" y="95" fill="#000000"/><rect width="5" height="5" x="85" y="95" fill="#000000"/><rect width="5" height="5" x="90" y="95" fill="#000000"/><rect width="5" height="5" x="100" y="95" fill="#000000"/><rect width="5" height="5" x="115" y="95" fill="#000000"/><rect width="5" height="5" x="180" y="95" fill="#000000"/><rect width="5" height="5" x="10" y="100" fill="#000000"/><rect width="5" height="5" x="20" y="100" fill="#000000"/><rect width="5" height="5" x="25" y="100" fill="#000000"/><rect width="5" height="5" x="30" y="100" fill="#000000"/><rect width="5" height="5" x="35" y="100" fill="#000000"/><rect width="5" height="5" x="60" y="100" fill="#000000"/><rect width="5" height="5" x="70" y="100" fill="#000000"/><rect width="5" height="5" x="75" y="100" fill="#000000"/><rect width="5" height="5" x="95" y="100" fill="#000000"/><rect width="5" height="5" x="100" y="100" fill="#000000"/><rect width="5" height="5" x="115" y="100" fill="#000000"/><rect width="5" height="5" x="125" y="100" fill="#000000"/><rect width="5" height="5" x="130" y="100" fill="#000000"/><rect width="5" height="5" x="135" y="100" fill="#000000"/><rect width="5" height="5" x="145" y="100" fill="#000000"/><rect width="5" height="5" x="150" y="100" fill="#000000"/><rect width="5" height="5" x="155" y="100" fill="#000000"/><rect width="5" height="5" x="160" y="100" fill="#000000"/><rect width="5" height="5" x="165" y="100" fill="#000000"/><rect width="5" height="5" x="170" y="100" fill="#000000"/><rect width="5" height="5" x="5" y="105" fill="#000000"/><rect width="5" height="5" x="10" y="105" fill="#000000"/><rect width="5" height="5" x="20" y="105" fill="#000000"/><rect width="5" height="5" x="35" y="105" fill="#000000"/><rect width="5" height="5" x="45" y="105" fill="#000000"/><rect width="5" height="5" x="55" y="105" fill="#000000"/><rect width="5" height="5" x="65" y="105" fill="#000000"/><rect width="5" height="5" x="85" y="105" fill="#000000"/><rect width="5" height="5" x="90" y="105" fill="#000000"/><rect width="5" height="5" x="95" y="105" fill="#000000"/><rect width="5" height="5" x="100" y="105" fill="#000000"/><rect width="5" height="5" x="115" y="105" fill="#000000"/><rect width="5" height="5" x="120" y="105" fill="#000000"/><rect width="5" height="5" x="145" y="105" fill="#000000"/><rect width="5" height="5" x="155" y="105" fill="#000000"/><rect width="5" height="5" x="170" y="105" fill="#000000"/><rect width="5" height="5" x="10" y="110" fill="#000000"/><rect width="5" height="5" x="20" y="110" fill="#000000"/><rect width="5" height="5" x="25" y="110" fill="#000000"/><rect width="5" height="5" x="30" y="110" fill="#000000"/><rect width="5" height="5" x="60" y="110" fill="#000000"/><rect width="5" height="5" x="70" y="110" fill="#000000"/><rect width="5" height="5" x="80" y="110" fill="#000000"/><rect width="5" height="5" x="85" y="110" fill="#000000"/><rect width="5" height="5" x="95" y="110" fill="#000000"/><rect width="5" height="5" x="110" y="110" fill="#000000"/><rect width="5" height="5" x="135" y="110" fill="#000000"/><rect width="5" height="5" x="170" y="110" fill="#000000"/><rect width="5" height="5" x="180" y="110" fill="#000000"/><rect width="5" height="5" x="25" y="115" fill="#000000"/><rect width="5" height="5" x="35" y="115" fill="#000000"/><rect width="5" height="5" x="50" y="115" fill="#000000"/><rect width="5" height="5" x="55" y="115" fill="#000000"/><rect width="5" height="5" x="65" y="115" fill="#000000"/><rect width="5" height="5" x="80" y="115" fill="#000000"/><rect width="5" height="5" x="85" y="115" fill="#000000"/><rect width="5" height="5" x="90" y="115" fill="#000000"/><rect width="5" height="5" x="110" y="115" fill="#000000"/><rect width="5" height="5" x="120" y="115" fill="#000000"/><rect width="5" height="5" x="130" y="115" fill="#000000"/><rect width="5" height="5" x="145" y="115" fill="#000000"/><rect width="5" height="5" x="150" y="115" fill="#000000"/><rect width="5" height="5" x="155" y="115" fill="#000000"/><rect width="5" height="5" x="175" y="115" fill="#000000"/><rect width="5" height="5" x="180" y="115" fill="#000000"/><rect width="5" height="5" x="0" y="120" fill="#000000"/><rect width="5" height="5" x="5" y="120" fill="#000000"/><rect width="5" height="5" x="15" y="120" fill="#000000"/><rect width="5" height="5" x="20" y="120" fill="#000000"/><rect width="5" height="5" x="25" y="120" fill="#000000"/><rect width="5" height="5" x="30" y="120" fill="#000000"/><rect width="5" height="5" x="35" y="120" fill="#000000"/><rect width="5" height="5" x="40" y="120" fill="#000000"/><rect width="5" height="5" x="60" y="120" fill="#000000"/><rect width="5" height="5" x="65" y="120" fill="#000000"/><rect width="5" height="5" x="75" y="120" fill="#000000"/><rect width="5" height="5" x="80" y="120" fill="#000000"/><rect width="5" height="5" x="85" y="120" fill="#000000"/><rect width="5" height="5" x="100" y="120" fill="#000000"/><rect width="5" height="5" x="110" y="120" fill="#000000"/><rect width="5" height="5" x="115" y="120" fill="#000000"/><rect width="5" height="5" x="145" y="120" fill="#000000"/><rect width="5" height="5" x="150" y="120" fill="#000000"/><rect width="5" height="5" x="160" y="120" fill="#000000"/><rect width="5" height="5" x="165" y="120" fill="#000000"/><rect width="5" height="5" x="170" y="120" fill="#000000"/><rect width="5" height="5" x="180" y="120" fill="#000000"/><rect width="5" height="5" x="0" y="125" fill="#000000"/><rect width="5" height="5" x="10" y="125" fill="#000000"/><rect width="5" height="5" x="45" y="125" fill="#000000"/><rect width="5" height="5" x="55" y="125" fill="#000000"/><rect width="5" height="5" x="60" y="125" fill="#000000"/><rect width="5" height="5" x="75" y="125" fill="#000000"/><rect width="5" height="5" x="90" y="125" fill="#000000"/><rect width="5" height="5" x="120" y="125" fill="#000000"/><rect width="5" height="5" x="130" y="125" fill="#000000"/><rect width="5" height="5" x="140" y="125" fill="#000000"/><rect width="5" height="5" x="155" y="125" fill="#000000"/><rect width="5" height="5" x="165" y="125" fill="#000000"/><rect width="5" height="5" x="170" y="125" fill="#000000"/><rect width="5" height="5" x="0" y="130" fill="#000000"/><rect width="5" height="5" x="10" y="130" fill="#000000"/><rect width="5" height="5" x="20" y="130" fill="#000000"/><rect width="5" height="5" x="30" y="130" fill="#000000"/><rect width="5" height="5" x="40" y="130" fill="#000000"/><rect width="5" height="5" x="45" y="130" fill="#000000"/><rect width="5" height="5" x="60" y="130" fill="#000000"/><rect width="5" height="5" x="80" y="130" fill="#000000"/><rect width="5" height="5" x="85" y="130" fill="#000000"/><rect width="5" height="5" x="95" y="130" fill="#000000"/><rect width="5" height="5" x="105" y="130" fill="#000000"/><rect width="5" height="5" x="125" y="130" fill="#000000"/><rect width="5" height="5" x="135" y="130" fill="#000000"/><rect width="5" height="5" x="140" y="130" fill="#000000"/><rect width="5" height="5" x="150" y="130" fill="#000000"/><rect width="5" height="5" x="160" y="130" fill="#000000"/><rect width="5" height="5" x="175" y="130" fill="#000000"/><rect width="5" height="5" x="180" y="130" fill="#000000"/><rect width="5" height="5" x="0" y="135" fill="#000000"/><rect width="5" height="5" x="15" y="135" fill="#000000"/><rect width="5" height="5" x="20" y="135" fill="#000000"/><rect width="5" height="5" x="60" y="135" fill="#000000"/><rect width="5" height="5" x="65" y="135" fill="#000000"/><rect width="5" height="5" x="75" y="135" fill="#000000"/><rect width="5" height="5" x="80" y="135" fill="#000000"/><rect width="5" height="5" x="90" y="135" fill="#000000"/><rect width="5" height="5" x="95" y="135" fill="#000000"/><rect width="5" height="5" x="105" y="135" fill="#000000"/><rect width="5" height="5" x="110" y="135" fill="#000000"/><rect width="5" height="5" x="120" y="135" fill="#000000"/><rect width="5" height="5" x="130" y="135" fill="#000000"/><rect width="5" height="5" x="140" y="135" fill="#000000"/><rect width="5" height="5" x="145" y="135" fill="#000000"/><rect width="5" height="5" x="155" y="135" fill="#000000"/><rect width="5" height="5" x="160" y="135" fill="#000000"/><rect width="5" height="5" x="175" y="135" fill="#000000"/><rect width="5" height="5" x="0" y="140" fill="#000000"/><rect width="5" height="5" x="20" y="140" fill="#000000"/><rect width="5" height="5" x="30" y="140" fill="#000000"/><rect width="5" height="5" x="35" y="140" fill="#000000"/><rect width="5" height="5" x="40" y="140" fill="#000000"/><rect width="5" height="5" x="45" y="140" fill="#000000"/><rect width="5" height="5" x="50" y="140" fill="#000000"/><rect width="5" height="5" x="60" y="140" fill="#000000"/><rect width="5" height="5" x="70" y="140" fill="#000000"/><rect width="5" height="5" x="80" y="140" fill="#000000"/><rect width="5" height="5" x="85" y="140" fill="#000000"/><rect width="5" height="5" x="90" y="140" fill="#000000"/><rect width="5" height="5" x="95" y="140" fill="#000000"/><rect width="5" height="5" x="105" y="140" fill="#000000"/><rect width="5" height="5" x="120" y="140" fill="#000000"/><rect width="5" height="5" x="125" y="140" fill="#000000"/><rect width="5" height="5" x="130" y="140" fill="#000000"/><rect width="5" height="5" x="135" y="140" fill="#000000"/><rect width="5" height="5" x="140" y="140" fill="#000000"/><rect width="5" height="5" x="145" y="140" fill="#000000"/><rect width="5" height="5" x="150" y="140" fill="#000000"/><rect width="5" height="5" x="155" y="140" fill="#000000"/><rect width="5" height="5" x="160" y="140" fill="#000000"/><rect width="5" height="5" x="165" y="140" fill="#000000"/><rect width="5" height="5" x="170" y="140" fill="#000000"/><rect width="5" height="5" x="175" y="140" fill="#000000"/><rect width="5" height="5" x="40" y="145" fill="#000000"/><rect width="5" height="5" x="50" y="145" fill="#000000"/><rect width="5" height="5" x="55" y="145" fill="#000000"/><rect width="5" height="5" x="65" y="145" fill="#000000"/><rect width="5" height="5" x="70" y="145" fill="#000000"/><rect width="5" height="5" x="90" y="145" fill="#000000"/><rect width="5" height="5" x="95" y="145" fill="#000000"/><rect width="5" height="5" x="115" y="145" fill="#000000"/><rect width="5" height="5" x="140" y="145" fill="#000000"/><rect width="5" height="5" x="160" y="145" fill="#000000"/><rect width="5" height="5" x="0" y="150" fill="#000000"/><rect width="5" height="5" x="5" y="150" fill="#000000"/><rect width="5" height="5" x="10" y="150" fill="#000000"/><rect width="5" height="5" x="15" y="150" fill="#000000"/><rect width="5" height="5" x="20" y="150" fill="#000000"/><rect width="5" height="5" x="25" y="150" fill="#000000"/><rect width="5" height="5" x="30" y="150" fill="#000000"/><rect width="5" height="5" x="60" y="150" fill="#000000"/><rect width="5" height="5" x="70" y="150" fill="#000000"/><rect width="5" height="5" x="80" y="150" fill="#000000"/><rect width="5" height="5" x="100" y="150" fill="#000000"/><rect width="5" height="5" x="105" y="150" fill="#000000"/><rect width="5" height="5" x="125" y="150" fill="#000000"/><rect width="5" height="5" x="140" y="150" fill="#000000"/><rect width="5" height="5" x="150" y="150" fill="#000000"/><rect width="5" height="5" x="160" y="150" fill="#000000"/><rect width="5" height="5" x="165" y="150" fill="#000000"/><rect width="5" height="5" x="175" y="150" fill="#000000"/><rect width="5" height="5" x="180" y="150" fill="#000000"/><rect width="5" height="5" x="0" y="155" fill="#000000"/><rect width="5" height="5" x="30" y="155" fill="#000000"/><rect width="5" height="5" x="45" y="155" fill="#000000"/><rect width="5" height="5" x="55" y="155" fill="#000000"/><rect width="5" height="5" x="60" y="155" fill="#000000"/><rect width="5" height="5" x="65" y="155" fill="#000000"/><rect width="5" height="5" x="75" y="155" fill="#000000"/><rect width="5" height="5" x="80" y="155" fill="#000000"/><rect width="5" height="5" x="85" y="155" fill="#000000"/><rect width="5" height="5" x="105" y="155" fill="#000000"/><rect width="5" height="5" x="110" y="155" fill="#000000"/><rect width="5" height="5" x="115" y="155" fill="#000000"/><rect width="5" height="5" x="130" y="155" fill="#000000"/><rect width="5" height="5" x="140" y="155" fill="#000000"/><rect width="5" height="5" x="160" y="155" fill="#000000"/><rect width="5" height="5" x="175" y="155" fill="#000000"/><rect width="5" height="5" x="180" y="155" fill="#000000"/><rect width="5" height="5" x="0" y="160" fill="#000000"/><rect width="5" height="5" x="10" y="160" fill="#000000"/><rect width="5" height="5" x="15" y="160" fill="#000000"/><rect width="5" height="5" x="20" y="160" fill="#000000"/><rect width="5" height="5" x="30" y="160" fill="#000000"/><rect width="5" height="5" x="40" y="160" fill="#000000"/><rect width="5" height="5" x="45" y="160" fill="#000000"/><rect width="5" height="5" x="50" y="160" fill="#000000"/><rect width="5" height="5" x="60" y="160" fill="#000000"/><rect width="5" height="5" x="65" y="160" fill="#000000"/><rect width="5" height="5" x="70" y="160" fill="#000000"/><rect width="5" height="5" x="80" y="160" fill="#000000"/><rect width="5" height="5" x="85" y="160" fill="#000000"/><rect width="5" height="5" x="95" y="160" fill="#000000"/><rect width="5" height="5" x="100" y="160" fill="#000000"/><rect width="5" height="5" x="105" y="160" fill="#000000"/><rect width="5" height="5" x="110" y="160" fill="#000000"/><rect width="5" height="5" x="120" y="160" fill="#000000"/><rect width="5" height="5" x="125" y="160" fill="#000000"/><rect width="5" height="5" x="130" y="160" fill="#000000"/><rect width="5" height="5" x="135" y="160" fill="#000000"/><rect width="5" height="5" x="140" y="160" fill="#000000"/><rect width="5" height="5" x="145" y="160" fill="#000000"/><rect width="5" height="5" x="150" y="160" fill="#000000"/><rect width="5" height="5" x="155" y="160" fill="#000000"/><rect width="5" height="5" x="160" y="160" fill="#000000"/><rect width="5" height="5" x="170" y="160" fill="#000000"/><rect width="5" height="5" x="175" y="160" fill="#000000"/><rect width="5" height="5" x="180" y="160" fill="#000000"/><rect width="5" height="5" x="0" y="165" fill="#000000"/><rect width="5" height="5" x="10" y="165" fill="#000000"/><rect width="5" height="5" x="15" y="165" fill="#000000"/><rect width="5" height="5" x="20" y="165" fill="#000000"/><rect width="5" height="5" x="30" y="165" fill="#000000"/><rect width="5" height="5" x="40" y="165" fill="#000000"/><rect width="5" height="5" x="45" y="165" fill="#000000"/><rect width="5" height="5" x="60" y="165" fill="#000000"/><rect width="5" height="5" x="75" y="165" fill="#000000"/><rect width="5" height="5" x="80" y="165" fill="#000000"/><rect width="5" height="5" x="85" y="165" fill="#000000"/><rect width="5" height="5" x="95" y="165" fill="#000000"/><rect width="5" height="5" x="100" y="165" fill="#000000"/><rect width="5" height="5" x="110" y="165" fill="#000000"/><rect width="5" height="5" x="125" y="165" fill="#000000"/><rect width="5" height="5" x="150" y="165" fill="#000000"/><rect width="5" height="5" x="160" y="165" fill="#000000"/><rect width="5" height="5" x="170" y="165" fill="#000000"/><rect width="5" height="5" x="0" y="170" fill="#000000"/><rect width="5" height="5" x="10" y="170" fill="#000000"/><rect width="5" height="5" x="15" y="170" fill="#000000"/><rect width="5" height="5" x="20" y="170" fill="#000000"/><rect width="5" height="5" x="30" y="170" fill="#000000"/><rect width="5" height="5" x="40" y="170" fill="#000000"/><rect width="5" height="5" x="50" y="170" fill="#000000"/><rect width="5" height="5" x="60" y="170" fill="#000000"/><rect width="5" height="5" x="75" y="170" fill="#000000"/><rect width="5" height="5" x="85" y="170" fill="#000000"/><rect width="5" height="5" x="95" y="170" fill="#000000"/><rect width="5" height="5" x="105" y="170" fill="#000000"/><rect width="5" height="5" x="115" y="170" fill="#000000"/><rect width="5" height="5" x="120" y="170" fill="#000000"/><rect width="5" height="5" x="145" y="170" fill="#000000"/><rect width="5" height="5" x="155" y="170" fill="#000000"/><rect width="5" height="5" x="170" y="170" fill="#000000"/><rect width="5" height="5" x="180" y="170" fill="#000000"/><rect width="5" height="5" x="0" y="175" fill="#000000"/><rect width="5" height="5" x="30" y="175" fill="#000000"/><rect width="5" height="5" x="45" y="175" fill="#000000"/><rect width="5" height="5" x="50" y="175" fill="#000000"/><rect width="5" height="5" x="65" y="175" fill="#000000"/><rect width="5" height="5" x="75" y="175" fill="#000000"/><rect width="5" height="5" x="95" y="175" fill="#000000"/><rect width="5" height="5" x="105" y="175" fill="#000000"/><rect width="5" height="5" x="115" y="175" fill="#000000"/><rect width="5" height="5" x="130" y="175" fill="#000000"/><rect width="5" height="5" x="135" y="175" fill="#000000"/><rect width="5" height="5" x="140" y="175" fill="#000000"/><rect width="5" height="5" x="145" y="175" fill="#000000"/><rect width="5" height="5" x="155" y="175" fill="#000000"/><rect width="5" height="5" x="180" y="175" fill="#000000"/><rect width="5" height="5" x="0" y="180" fill="#000000"/><rect width="5" height="5" x="5" y="180" fill="#000000"/><rect width="5" height="5" x="10" y="180" fill="#000000"/><rect width="5" height="5" x="15" y="180" fill="#000000"/><rect width="5" height="5" x="20" y="180" fill="#000000"/><rect width="5" height="5" x="25" y="180" fill="#000000"/><rect width="5" height="5" x="30" y="180" fill="#000000"/><rect width="5" height="5" x="50" y="180" fill="#000000"/><rect width="5" height="5" x="55" y="180" fill="#000000"/><rect width="5" height="5" x="60" y="180" fill="#000000"/><rect width="5" height="5" x="65" y="180" fill="#000000"/><rect width="5" height="5" x="80" y="180" fill="#000000"/><rect width="5" height="5" x="90" y="180" fill="#000000"/><rect width="5" height="5" x="100" y="180" fill="#000000"/><rect width="5" height="5" x="110" y="180" fill="#000000"/><rect width="5" height="5" x="115" y="180" fill="#000000"/><rect width="5" height="5" x="120" y="180" fill="#000000"/><rect width="5" height="5" x="125" y="180" fill="#000000"/><rect width="5" height="5" x="130" y="180" fill="#000000"/><rect width="5" height="5" x="155" y="180" fill="#000000"/><rect width="5" height="5" x="160" y="180" fill="#000000"/><rect width="5" height="5" x="170" y="180" fill="#000000"/><rect width="5" height="5" x="175" y="180" fill="#000000"/><rect width="5" height="5" x="180" y="180" fill="#000000"/></svg>